# xmcd
# Copyright (C) 1995-1998 Ti Kan
#
# Track frame offsets:
#       150
#       23691
#       41496
#       59796
#       76089
#       96057
#       111663
#       129464
#       147269
#       168226
#       182782
#       206695
#
# Disc length: 3453 seconds
#
# Revision: 0
# Processed by: cddbd v1.5.2PL0 Copyright (c) Steve Scherf et al.
# Submitted via: CD-Import v1.0
#
DISCID=a60d7b0c
DTITLE=Dan Le Sac Vs. Scroobius Pip - Angel
DYEAR=2008
DGENRE=
TTITLE0=The Beat That My Heart Skipped
TTITLE1=Development
TTITLE2=Look For The Woman
TTITLE3=Rapper's Battle
TTITLE4=Tommy C
TTITLE5=Fixed
TTITLE6=Angles
TTITLE7=Letter From God To Man
TTITLE8=Magician's Assistant
TTITLE9=Back From Hell
TTITLE10=Thou Shalt Always Kill
TTITLE11=Waiting For The Beat To Kick In...
EXTD=
EXTT0=
EXTT1=
EXTT2=
EXTT3=
EXTT4=
EXTT5=
EXTT6=
EXTT7=
EXTT8=
EXTT9=
EXTT10=
EXTT11=
PLAYORDER=
